<svg xmlns="http://www.w3.org/2000/svg" data-name="Layer 1" viewBox="0 0 100 125" x="0px" y="0px"><title>Moon</title><path d="M50.28,93.77h0a44.05,44.05,0,0,1-31.15-75.2,43.7,43.7,0,0,1,24-12.32l2.95-.48L44.76,8.43A34.77,34.77,0,0,0,91.57,55.24l2.66-1.36-.48,2.95A44,44,0,0,1,50.28,93.77Zm-9.49-84A41,41,0,1,0,90.21,59.21,37.81,37.81,0,0,1,40.79,9.79Z"/><text x="0" y="115" fill="#000000" font-size="5px" font-weight="bold" font-family="'Helvetica Neue', Helvetica, Arial-Unicode, Arial, Sans-serif">Created by Anhar Ismail</text><text x="0" y="120" fill="#000000" font-size="5px" font-weight="bold" font-family="'Helvetica Neue', Helvetica, Arial-Unicode, Arial, Sans-serif">from the Noun Project</text></svg>