<svg xmlns="http://www.w3.org/2000/svg" xmlns:xlink="http://www.w3.org/1999/xlink" version="1.1" x="0px" y="0px" viewBox="0 0 100 125" enable-background="new 0 0 100 100" xml:space="preserve"><g><rect x="-192" width="185" height="99"/><rect y="-36" width="100" height="30"/><text transform="matrix(1 0 0 1 66 -19.5)" fill="#000000" font-family="'Helvetica'" font-size="2.4">http://thenounproject.com</text><text transform="matrix(1 0 0 1 7.166 -24.5)" fill="#000000" font-family="'Helvetica-Bold'" font-size="6.1578">The Noun Project</text><text transform="matrix(1 0 0 1 8.2861 -19.7002)" fill="#000000" font-family="'Helvetica-Bold'" font-size="4">Icon Template</text><text transform="matrix(1 0 0 1 -178.5 10.5)" fill="#000000" font-family="'Helvetica-Bold'" font-size="6.1578">Reminders</text><line fill="#000000" stroke="#FFFFFF" stroke-miterlimit="10" x1="8" y1="-14.5" x2="18" y2="-14.5"/><line fill="#000000" stroke="#FFFFFF" stroke-miterlimit="10" x1="-179" y1="16.5" x2="-162" y2="16.5"/><g><g><g><rect x="-170.802" y="31.318" fill="#000000" width="8.721" height="8.642"/><path fill="#000000" d="M-164.455,42.312h4.747v-4.703h-4.747V42.312z M-159.266,42.749h-5.63V37.17h5.63V42.749      L-159.266,42.749z M-166.221,44.062h8.279v-8.203h-8.279V44.062L-166.221,44.062z M-157.5,44.5h-9.163v-9.079h9.163V44.5      L-157.5,44.5z"/><polygon fill="#000000" points="-166.149,44.133 -166.292,43.991 -158.013,35.787 -157.871,35.929     "/></g></g></g><rect x="-179" y="58" fill="none" width="35" height="32.5"/><text transform="matrix(1 0 0 1 -179 60.1572)" fill="#000000" font-family="'Helvetica-Bold'" font-size="3">Strokes</text><text transform="matrix(1 0 0 1 -179 65.1572)" fill="#000000" font-family="'Helvetica'" font-size="2.4">Try to keep strokes at 4px</text><text transform="matrix(1 0 0 1 -179 70.1572)" fill="#000000" font-family="'Helvetica'" font-size="2.4">Minimum stroke weight is 2px</text><text transform="matrix(1 0 0 1 -179 74.6572)" fill="#000000" font-family="'Helvetica'" font-size="2.4">For thicker strokes use even </text><text transform="matrix(1 0 0 1 -179 77.6572)" fill="#000000" font-family="'Helvetica'" font-size="2.4">numbers: 6px, 8px etc.</text><text transform="matrix(1 0 0 1 -179 82.1572)" fill="#000000" font-family="'Helvetica-Bold'" font-size="2.4">Remember to expand strokes </text><text transform="matrix(1 0 0 1 -179 85.1572)" fill="#000000" font-family="'Helvetica-Bold'" font-size="2.4">before saving as an SVG </text><rect x="-136.5" y="58" fill="none" width="35" height="32.5"/><text transform="matrix(1 0 0 1 -136.5 60.1572)" fill="#000000" font-family="'Helvetica-Bold'" font-size="3">Size</text><text transform="matrix(1 0 0 1 -136.5 65.1572)" fill="#000000" font-family="'Helvetica'" font-size="2.4">Cannot be wider or taller than </text><text transform="matrix(1 0 0 1 -136.5 68.6572)" fill="#000000" font-family="'Helvetica'" font-size="2.4">100px (artboard size)</text><text transform="matrix(1 0 0 1 -136.5 73.6572)" fill="#000000" font-family="'Helvetica'" font-size="2.4">Scale your icon to fill as much of </text><text transform="matrix(1 0 0 1 -136.5 76.6572)" fill="#000000" font-family="'Helvetica'" font-size="2.4">the artboard as possible</text><rect x="-94" y="58" fill="none" width="35" height="32.5"/><text transform="matrix(1 0 0 1 -94 60.1572)" fill="#000000" font-family="'Helvetica-Bold'" font-size="3">Ungroup</text><text transform="matrix(1 0 0 1 -94 65.1572)" fill="#000000" font-family="'Helvetica'" font-size="2.4">If your design has more than one </text><text transform="matrix(1 0 0 1 -94 68.1572)" fill="#000000" font-family="'Helvetica'" font-size="2.4">shape, make sure to ungroup</text><rect x="-50" y="58" fill="none" width="35" height="32.5"/><text transform="matrix(1 0 0 1 -50 60.1572)" fill="#000000" font-family="'Helvetica-Bold'" font-size="3">Save as</text><text transform="matrix(1 0 0 1 -50 65.1572)" fill="#000000" font-family="'Helvetica'" font-size="2.4">Save as .SVG and make sure </text><text transform="matrix(1 0 0 1 -50 68.1572)" fill="#000000" font-family="'Helvetica'" font-size="2.4">“Use Artboards” is checked</text><text transform="matrix(1.0074 0 0 1 -125.542 30.5938)" fill="#000000" font-family="'Helvetica'" font-size="2.5731">100px</text><text transform="matrix(1.0074 0 0 1 -41 39)" fill="#000000" font-family="'Helvetica-Bold'" font-size="5.1462">.SVG</text><rect x="-126.514" y="34.815" fill="#000000" width="10.261" height="10.185"/><rect x="-126.477" y="31.766" fill="#000000" width="0.522" height="2.337"/><rect x="-116.812" y="31.766" fill="#000000" width="0.523" height="2.337"/><rect x="-127" y="32.337" fill="#000000" width="11.233" height="0.572"/><g><rect x="-83.805" y="33.844" fill="#000000" width="10.305" height="10.156"/><rect x="-76.809" y="28.707" fill="#000000" width="3.308" height="3.261"/></g><rect x="-178.5" y="22.5" fill="#000000" stroke="#FFFFFF" stroke-miterlimit="10" width="30" height="30"/><rect x="-136.5" y="22.5" fill="#000000" stroke="#FFFFFF" stroke-miterlimit="10" width="30" height="30"/><rect x="-93.5" y="22.5" fill="#000000" stroke="#FFFFFF" stroke-miterlimit="10" width="30" height="30"/><rect x="-49.5" y="22.5" fill="#000000" stroke="#FFFFFF" stroke-miterlimit="10" width="30" height="30"/></g><path d="M31.25,22.17c0.507,0.87,1.421,1.351,2.358,1.351c0.463,0,0.929-0.106,1.358-0.363c1.301-0.745,1.745-2.415,0.991-3.709  L29.492,8.245c-0.757-1.308-2.415-1.755-3.716-0.995c-1.302,0.738-1.749,2.409-0.995,3.709L31.25,22.17z"/><path d="M19.445,50.047c0-1.502-1.22-2.723-2.721-2.723H3.781c-1.502,0-2.721,1.22-2.721,2.723s1.219,2.729,2.721,2.729h12.943  C18.225,52.775,19.445,51.55,19.445,50.047z"/><path d="M22.604,30.812L11.4,24.334c-1.307-0.751-2.971-0.304-3.715,1.001c-0.751,1.307-0.31,2.97,0.994,3.709l11.208,6.475  c0.431,0.245,0.897,0.356,1.36,0.356c0.932,0,1.852-0.472,2.352-1.358C24.356,33.229,23.911,31.563,22.604,30.812z"/><path d="M19.887,64.58L8.678,71.057c-1.303,0.754-1.745,2.413-0.994,3.715c0.5,0.881,1.417,1.355,2.352,1.355  c0.469,0,0.929-0.105,1.364-0.363l11.205-6.468c1.307-0.749,1.751-2.407,0.994-3.729C22.854,64.279,21.187,63.822,19.887,64.58z"/><path d="M79.732,35.883c0.457,0,0.926-0.118,1.359-0.363L92.3,29.057c1.296-0.751,1.739-2.415,0.995-3.721  c-0.752-1.296-2.416-1.753-3.717-1.001l-11.204,6.478c-1.312,0.751-1.751,2.417-1.001,3.726  C77.878,35.405,78.794,35.883,79.732,35.883z"/><path d="M50.486,19.005c1.502,0,2.722-1.22,2.722-2.715V3.34c0-1.496-1.22-2.715-2.722-2.715c-1.504,0-2.722,1.219-2.722,2.715  v12.95C47.765,17.785,48.982,19.005,50.486,19.005z"/><path d="M66.014,23.165c0.426,0.25,0.897,0.356,1.352,0.356c0.945,0,1.857-0.476,2.357-1.351l6.473-11.211  c0.754-1.3,0.308-2.961-0.991-3.709c-1.308-0.76-2.966-0.312-3.716,0.995l-6.475,11.204C64.266,20.753,64.706,22.414,66.014,23.165z  "/><path d="M97.199,47.332H84.255c-1.507,0-2.721,1.213-2.721,2.716s1.214,2.728,2.715,2.728h12.95c1.5,0,2.718-1.226,2.718-2.714  C99.917,48.545,98.699,47.332,97.199,47.332z"/><path d="M50.485,76.171c14.419,0,26.113-11.696,26.113-26.111c0-14.426-11.693-26.124-26.113-26.124  c-14.427,0-26.111,11.697-26.111,26.124C24.374,64.475,36.059,76.171,50.485,76.171z"/><path d="M92.301,71.057L81.093,64.58c-1.304-0.758-2.968-0.301-3.719,0.986c-0.75,1.322-0.31,2.979,1.001,3.729l11.204,6.468  c0.428,0.258,0.894,0.377,1.356,0.377c0.938,0,1.85-0.488,2.359-1.363C94.04,73.47,93.596,71.811,92.301,71.057z"/><path d="M34.959,76.947c-1.301-0.75-2.965-0.307-3.71,0.994L24.78,89.152c-0.753,1.301-0.312,2.972,0.986,3.715  c0.428,0.257,0.904,0.371,1.361,0.371c0.948,0,1.855-0.489,2.365-1.371l6.465-11.21C36.711,79.361,36.265,77.704,34.959,76.947z"/><path d="M69.723,77.941c-0.746-1.301-2.408-1.744-3.709-0.994c-1.308,0.757-1.748,2.414-1,3.71l6.475,11.217  c0.504,0.875,1.416,1.364,2.353,1.364c0.47,0,0.937-0.114,1.363-0.371c1.299-0.743,1.745-2.414,0.991-3.715L69.723,77.941z"/><path d="M50.486,81.107c-1.504,0-2.722,1.22-2.722,2.727v12.951c0,1.488,1.217,2.714,2.722,2.714c1.502,0,2.715-1.226,2.715-2.714  V83.834C53.201,82.327,51.988,81.107,50.486,81.107z"/><text x="0" y="115" fill="#000000" font-size="5px" font-weight="bold" font-family="'Helvetica Neue', Helvetica, Arial-Unicode, Arial, Sans-serif">Created by iconoci</text><text x="0" y="120" fill="#000000" font-size="5px" font-weight="bold" font-family="'Helvetica Neue', Helvetica, Arial-Unicode, Arial, Sans-serif">from the Noun Project</text></svg>